<?xml version="1.0" encoding="utf-8"?>
<!-- Generator: Adobe Illustrator 18.1.1, SVG Export Plug-In . SVG Version: 6.00 Build 0)  -->
<svg version="1.1" id="Layer_1" xmlns="http://www.w3.org/2000/svg" xmlns:xlink="http://www.w3.org/1999/xlink" x="0px" y="0px"
	 viewBox="-185 399 1010 337" enable-background="new -185 399 1010 337" xml:space="preserve">
<g>
	<g>
		<path fill="#F26522" d="M52,736H42v-3h10V736z M32,736H22v-3h10V736z M12,736H2v-3h10V736z M-8,736h-10v-3h10V736z M-28,736h-10
			v-3h10V736z M-48,736h-10v-3h10V736z M-68,736h-10v-3h10V736z M-88,736h-10v-3h10V736z M-108,736h-10v-3h10V736z M-128,736h-10v-3
			h10V736z M-148,736h-10v-3h10V736z M-168,736h-3.5c-2.3,0-4.7-0.6-6.7-1.8l1.5-2.6c1.6,0.9,3.4,1.4,5.2,1.4h3.5V736z M62.7,733.9
			l-1.6-2.5c2.5-1.6,4.2-4.2,4.7-7.1l3,0.5C68.2,728.5,65.9,731.9,62.7,733.9z M-184.7,725.4c-0.2-1-0.3-2-0.3-2.9V715h3v7.5
			c0,0.8,0.1,1.5,0.3,2.3L-184.7,725.4z M69,715h-3v-10h3V715z M-182,705h-3v-10h3V705z M69,695h-3v-10h3V695z M-182,685h-3v-10h3
			V685z M69,675h-3v-10h3V675z M-182,665h-3v-10h3V665z M69,655h-3v-10h3V655z M-182,645h-3v-10h3V645z M69,635h-3v-10h3V635z
			 M-182,625h-3v-10h3V625z M69,615h-3v-10h3V615z M-182,605h-3v-10h3V605z M69,595h-3v-10h3V595z M-182,585h-3v-10h3V585z M69,575
			h-3v-10h3V575z M-182,565h-3v-10h3V565z M69,555h-3v-10h3V555z M-182,545h-3v-10h3V545z M69,535h-3v-10h3V535z M-182,525h-3v-10h3
			V525z M69,515h-3v-10h3V515z M388,513h-10v-3h10V513z M368,513h-10v-3h10V513z M348,513h-10v-3h10V513z M327.4,512.2
			c-3.6-1.2-6.6-3.9-8.2-7.2l2.7-1.3c1.3,2.6,3.6,4.7,6.4,5.7L327.4,512.2z M-182,505h-3v-10h3V505z M69,495h-3v-10h3V495z M321,495
			h-3v-10h3V495z M-182,485h-3v-10h3V485z M69,475h-3v-10h3V475z M321,475h-3v-10h3V475z M-182,465h-3v-10h3V465z M69,455h-3v-10h3
			V455z M321,455h-3v-10h3V455z M-182,445h-3v-10h3V445z M69,435h-3v-10h3V435z M321,435h-3v-10h3V435z M-182,425h-3v-10h3V425z
			 M69,415h-3v-2.5c0-3,1-5.9,2.8-8.3l2.4,1.8c-1.4,1.9-2.2,4.1-2.2,6.4V415z M321,415h-3v-2.5c0-2.4-0.7-4.7-2.1-6.6l2.4-1.8
			c1.8,2.4,2.7,5.3,2.7,8.3V415z M-180.1,406.5l-2.5-1.7c2.2-3.1,5.6-5.2,9.4-5.6l0.4,3C-175.7,402.4-178.4,404-180.1,406.5z
			 M78.7,402l-0.2-3c0.3,0,0.7,0,1,0H89v3h-9.5C79.2,402,79,402,78.7,402z M308.5,402c-0.2,0-0.3,0-0.5,0h-9v-3h9c0.2,0,0.4,0,0.6,0
			L308.5,402z M289,402h-10v-3h10V402z M269,402h-10v-3h10V402z M249,402h-10v-3h10V402z M229,402h-10v-3h10V402z M209,402h-10v-3
			h10V402z M189,402h-10v-3h10V402z M169,402h-10v-3h10V402z M149,402h-10v-3h10V402z M129,402h-10v-3h10V402z M109,402H99v-3h10
			V402z M-133,402h-10v-3h10V402z M-153,402h-10v-3h10V402z"/>
	</g>
	<g>
		<g>
			<rect x="500" y="510" fill="#F26522" width="5" height="3"/>
		</g>
		<g>
			<path fill="#F26522" d="M812,736h-6v-3h6c1.3,0,2.6-0.2,3.8-0.7l1.1,2.8C815.4,735.7,813.7,736,812,736z M796,736h-10v-3h10V736z
				 M776,736h-10v-3h10V736z M756,736h-10v-3h10V736z M736,736h-10v-3h10V736z M716,736h-10v-3h10V736z M696,736h-10v-3h10V736z
				 M676,736h-11v-3h11V736z M655,736h-10v-3h10V736z M635,736h-10v-3h10V736z M615,736h-10v-3h10V736z M595,736h-10v-3h10V736z
				 M574.6,732.7c-2.9-2.5-4.6-6.2-4.6-10l3,0c0,3,1.3,5.8,3.6,7.8L574.6,732.7z M824.3,726.9l-2.9-0.9c0.4-1.1,0.5-2.3,0.5-3.5V716
				h3v6.5C825,724,824.8,725.5,824.3,726.9z M573,713h-3v-10h3V713z M825,706h-3v-10h3V706z M573,692h-3v-10h3V692z M825,686h-3v-10
				h3V686z M573,672h-3v-10h3V672z M825,666h-3v-10h3V666z M573,652h-3v-10h3V652z M825,646h-3v-10h3V646z M573,632h-3v-10h3V632z
				 M825,626h-3v-10h3V626z M573,612h-3v-10h3V612z M825,606h-3v-10h3V606z M573,592h-3v-10h3V592z M825,586h-3v-10h3V586z M573,572
				h-3v-10h3V572z M825,565h-3v-10h3V565z M573,552h-3v-11h3V552z M825,545h-3v-10h3V545z M573,531h-3v-8c0-0.5,0-1-0.1-1.4l3-0.4
				c0.1,0.6,0.1,1.2,0.1,1.8V531z M825,525h-3v-10h3V525z M565.2,514.6c-1.7-1-3.7-1.6-5.7-1.6H556v-3h3.5c2.6,0,5.1,0.7,7.3,2
				L565.2,514.6z M546,513h-10v-3h10V513z M526,513h-10v-3h10V513z M825,505h-3v-10h3V505z M825,485h-3v-10h3V485z M825,465h-3v-10
				h3V465z M825,445h-3v-10h3V445z M825,425h-3v-10h3V425z"/>
		</g>
		<g>
			<rect x="822" y="401" fill="#F26522" width="3" height="5"/>
		</g>
	</g>
</g>
</svg>
