<?xml version="1.0" encoding="utf-8"?>
<!-- Generator: Adobe Illustrator 18.1.1, SVG Export Plug-In . SVG Version: 6.00 Build 0)  -->
<svg version="1.1" id="Layer_1" xmlns="http://www.w3.org/2000/svg" xmlns:xlink="http://www.w3.org/1999/xlink" x="0px" y="0px"
	 viewBox="0.1 418.9 300.4 298.1" enable-background="new 0.1 418.9 300.4 298.1" xml:space="preserve">
<g>
	<path fill="#333333" d="M105.7,547.1c34.1-40.3,77.3-60.7,131.8-59.3c-11.9-20.9-30.8-34.1-49.8-46.9
		c-19.9-13.7-42.7-16.6-66.4-16.1c36-11.4,96.2-9,135.1,30.3c43.6,43.6,51.2,101.5,38.4,139.4C260.7,519.6,186.8,485,105.7,547.1z"
		/>
	<path fill="#333333" d="M158.3,616.8c-37-5.2-86.3-26.5-116.1-83.9c-12.3,20.9-14.2,43.1-16.1,65.9c-1.9,23.2,6.6,44.1,17.5,64
		C12.8,632.5-9,582.2,3.8,534.8c14.2-54,47.4-89.6,101.9-104.8c-0.9,1.4-1.4,2.8-2.4,3.8c-14.7,21.8-24.7,45.5-26.1,72.5
		c-1.9,32.7,10,60.2,34.6,82C125.6,600.2,141.3,609.2,158.3,616.8z"/>
	<path fill="#333333" d="M58.8,674.7c76.8,8.1,149.8-33.7,135.6-140.3c16.1,38.4,18,94.8-14.7,144.6c24.7,0,45-9.5,65.4-19.4
		c21.8-10.4,35.6-28.4,47.4-49.3c-5.2,41.7-50.3,89.6-94.3,101.5C141.7,726.8,88.2,707.9,58.8,674.7z"/>
	<path fill="#FF6F00" d="M153.1,494.5c-16.1,0-29.4-13.3-29.4-29.4c0-15.6,13.3-28.4,29.4-28.4s29.4,13.3,29.4,28.9
		C182,481.2,168.8,494.5,153.1,494.5z"/>
	<path fill="#FF6F00" d="M64.5,588.4c16.1,0,28.9,12.8,28.9,28.9c0,16.6-12.8,28.9-29.4,28.9c-16.1,0-28.4-12.8-28.4-28.9
		C36,600.2,48.4,588.4,64.5,588.4z"/>
	<path fill="#FF6F00" d="M241.8,645.7c-16.1,0-29.4-12.8-29.4-28.9c0-16.1,12.8-28.4,28.9-28.4s29.4,12.8,29.4,28.9
		C270.7,632.9,257.9,645.7,241.8,645.7z"/>
</g>
</svg>
