<?xml version="1.0" encoding="utf-8"?>
<!-- Generator: Adobe Illustrator 18.1.1, SVG Export Plug-In . SVG Version: 6.00 Build 0)  -->
<svg version="1.1" id="Layer_1" xmlns="http://www.w3.org/2000/svg" xmlns:xlink="http://www.w3.org/1999/xlink" x="0px" y="0px"
	 viewBox="171.1 464.9 297.2 205.7" enable-background="new 171.1 464.9 297.2 205.7" xml:space="preserve">
<g>
	<path fill="#FF6F00" d="M345.5,464.9l-32.7,133.7H282l-23.7-103.3l-23.7,103.3h-30.8l-32.7-133.7h28l20.4,105.2l24.7-105.2h28
		l24.7,105.2l21.8-105.2C318.5,464.9,345.5,464.9,345.5,464.9z"/>
	<path fill="#FF6F00" d="M464,598.6H361.2V464.9h100v23.7h-71.6v29.9h66.8v24.2h-66.8v31.8H464L464,598.6L464,598.6z"/>
	<path fill="#333333" d="M180.1,632.7c0.9-1.4,2.4-2.4,3.8-3.3c1.4-0.9,3.3-0.9,5.2-0.9c2.4,0,4.3,0.5,5.7,1.4
		c1.4,0.9,2.8,1.9,3.8,3.3c0.9,1.4,1.4,3.3,1.9,4.7c0.5,1.9,0.5,3.8,0.5,5.7c0,2.4-0.5,4.3-0.9,6.6c-0.5,2.4-1.4,3.8-2.4,5.2
		s-2.4,2.4-3.8,3.3c-1.4,0.5-3.3,0.9-5.2,0.9c-1.9,0-3.3,0-4.7-0.5c-1.4-0.5-2.4-1.4-3.3-2.4v13.7h-9v-42.2h8.5L180.1,632.7
		L180.1,632.7z M180.5,651.2c0.9,0.9,1.9,1.4,2.8,1.9s1.9,0.5,3.3,0.5c1.9,0,3.3-0.9,4.3-2.4c0.9-1.4,1.4-4.3,1.4-7.1
		c0-6.2-1.9-9.5-5.7-9.5c-1.4,0-2.4,0.5-3.3,0.9c-0.9,0.9-1.9,1.9-2.8,2.8L180.5,651.2L180.5,651.2z"/>
	<path fill="#333333" d="M226.5,636c-0.5,0-0.9-0.5-1.4-0.5c-0.5,0-1.4,0-1.9,0c-1.4,0-2.8,0.5-3.8,0.9s-2.4,1.4-3.3,2.8v19.9h-9
		v-30.3h8.5v4.7c1.4-1.9,2.8-3.3,4.3-4.3c1.4-0.9,2.8-1.4,4.7-1.4c0.5,0,0.9,0,0.9,0h0.9L226.5,636L226.5,636z"/>
	<path fill="#333333" d="M244.5,628c2.4,0,4.7,0.5,6.6,0.9s3.3,1.9,4.7,2.8c1.4,1.4,2.4,2.8,3.3,5.2c0.9,2.4,0.9,4.3,0.9,6.6
		s-0.5,4.7-0.9,6.6c-0.5,1.9-1.9,3.8-3.3,5.2c-1.4,1.4-2.8,2.4-4.7,2.8c-1.9,1.4-4.3,1.4-6.6,1.4c-2.4,0-4.7-0.5-6.6-0.9
		c-1.9-0.5-3.3-1.9-4.7-2.8c-1.4-1.4-2.4-2.8-3.3-5.2s-0.9-4.3-0.9-6.6c0-2.4,0.5-4.7,0.9-6.6c0.5-1.9,1.9-3.8,3.3-5.2
		c1.4-1.4,2.8-2.4,4.7-2.8C240.3,628.4,242.2,628,244.5,628z M244.5,653.6c1.9,0,3.8-0.9,4.7-2.4s1.9-3.8,1.9-7.1
		c0-3.3-0.5-5.7-1.9-7.1c-0.9-1.4-2.8-2.4-4.7-2.4s-3.8,0.9-4.7,2.4c-0.9,1.4-1.9,3.8-1.9,7.1c0,3.3,0.5,5.7,1.9,7.1
		C241.2,652.6,242.6,653.6,244.5,653.6z"/>
	<path fill="#333333" d="M285.3,655.5c-1.4,1.4-2.4,2.4-4.3,3.3c-1.4,0.9-3.3,0.9-4.7,0.9c-1.9,0-3.8-0.5-5.2-0.9
		c-1.4-0.9-2.8-1.9-3.8-3.3s-1.9-2.8-2.4-4.7c-0.5-1.9-0.9-4.3-0.9-6.6s0.5-4.7,0.9-6.6c0.5-1.9,1.4-3.8,2.4-5.2
		c0.9-1.4,2.4-2.4,3.8-3.3c1.4-0.9,3.3-0.9,5.2-0.9s3.3,0,4.7,0.5c1.4,0.5,2.4,1.4,3.3,2.4v-13.7h9v42.2h-8.5v-3.8H285.3z
		 M285.3,637c-0.9-0.9-1.9-1.4-2.8-1.9c-0.9-0.5-1.9-0.5-3.3-0.5c-1.9,0-3.3,0.9-4.3,2.4c-0.9,1.4-1.4,4.3-1.4,7.1
		c0,6.2,1.9,9.5,5.7,9.5c1.4,0,2.4-0.5,3.3-0.9c0.9-0.9,1.9-1.9,2.8-2.8L285.3,637L285.3,637z"/>
	<path fill="#333333" d="M321.3,655.5c-1.4,1.4-2.8,2.8-4.7,3.3c-1.4,0.9-3.3,0.9-5.2,0.9c-7.1,0-10.4-3.8-10.4-11.4v-19.9h9v19
		c0,1.9,0.5,3.3,0.9,4.3c0.5,0.9,1.9,1.4,3.3,1.4c1.4,0,2.4-0.5,3.3-0.9c0.9-0.9,2.4-1.4,3.3-2.8v-20.9h9v30.3h-8.5V655.5z"/>
	<path fill="#333333" d="M350.7,659.7c-2.4,0-4.7-0.5-6.6-0.9c-1.9-0.9-3.3-1.9-4.7-3.3s-2.4-2.8-2.8-5.2c-0.5-1.9-0.9-4.3-0.9-6.6
		s0.5-4.7,0.9-6.6c0.5-1.9,1.9-3.8,3.3-5.2c1.4-1.4,2.8-2.4,4.7-3.3c1.9-0.5,4.3-0.9,6.6-0.9c3.8,0,7.1,0.9,9.5,2.8
		c2.4,1.9,3.8,4.7,4.3,8.1h-8.1c0-1.4-0.9-2.4-1.9-3.3c-0.9-0.9-2.4-1.4-3.8-1.4c-1.9,0-3.8,0.9-4.7,2.4c-1.4,1.4-1.9,3.8-1.9,7.1
		c0,3.3,0.5,5.7,1.9,7.1c1.4,1.4,2.8,2.4,4.7,2.4c1.4,0,2.8-0.5,3.8-1.4c0.9-0.9,1.4-1.9,1.9-3.3h8.1c-0.5,3.3-1.9,6.2-4.3,8.1
		C357.8,658.8,355,659.7,350.7,659.7z"/>
	<path fill="#333333" d="M384.4,659.3c-1.4,0.5-2.8,0.5-4.7,0.5c-2.4,0-4.3-0.5-5.2-0.9c-1.4-0.5-2.4-1.4-2.8-2.4
		c-0.5-0.9-0.9-2.4-0.9-3.8c0-1.4,0-3.3,0-5.2v-11.9h-3.8v-6.2h3.8v-7.6h8.5v7.6h5.2v6.2h-5.2v13.7c0,0.9,0,1.9,0,2.4
		c0,0.5,0.5,0.9,0.5,1.4s0.5,0.5,0.9,0.9c0.5,0,0.9,0,1.4,0c0.9,0,1.4,0,2.4,0L384.4,659.3L384.4,659.3z"/>
	<path fill="#333333" d="M397.2,623.7h-9v-6.6h9V623.7z M397.2,659.3h-9v-30.3h9V659.3z"/>
	<path fill="#333333" d="M418.5,628c2.4,0,4.7,0.5,6.6,0.9s3.3,1.9,4.7,2.8c1.4,1.4,2.4,2.8,3.3,5.2c0.9,2.4,0.9,4.3,0.9,6.6
		s-0.5,4.7-0.9,6.6c-0.5,1.9-1.9,3.8-3.3,5.2c-1.4,1.4-2.8,2.4-4.7,2.8s-4.3,0.9-6.6,0.9c-2.4,0-4.7-0.5-6.6-0.9
		c-1.9-0.5-3.3-1.9-4.7-2.8c-1.4-1.4-2.4-2.8-3.3-5.2c-0.9-2.4-0.9-4.3-0.9-6.6s0.5-4.7,0.9-6.6c0.5-1.9,1.9-3.8,3.3-5.2
		c1.4-1.4,2.8-2.4,4.7-2.8C414.3,628.4,416.2,628,418.5,628z M418.5,653.6c1.9,0,3.8-0.9,4.7-2.4c0.9-1.4,1.9-3.8,1.9-7.1
		c0-3.3-0.5-5.7-1.9-7.1c-0.9-1.4-2.8-2.4-4.7-2.4c-1.9,0-3.8,0.9-4.7,2.4c-0.9,1.4-1.9,3.8-1.9,7.1c0,3.3,0.5,5.7,1.9,7.1
		S416.6,653.6,418.5,653.6z"/>
	<path fill="#333333" d="M448.4,632.7c1.4-1.4,2.8-2.8,4.3-3.3c1.4-0.9,3.3-0.9,5.2-0.9c7.1,0,10.4,3.8,10.4,11.4v19.9h-9v-19
		c0-1.9-0.5-3.3-0.9-4.3c-0.5-0.9-1.9-1.4-3.3-1.4s-2.4,0.5-3.3,0.9c-0.9,0.5-1.9,1.9-3.3,2.8v20.9h-8.5v-30.3h8.5V632.7z"/>
</g>
</svg>
